<svg width="19" height="13" viewBox="0 0 19 13" fill="none" xmlns="http://www.w3.org/2000/svg">
<path fill-rule="evenodd" clip-rule="evenodd" d="M11.5936 0.304843C11.9776 -0.092171 12.6106 -0.102781 13.0077 0.281144L18.6952 5.78114C18.89 5.96955 19 6.22897 19 6.5C19 6.77103 18.89 7.03045 18.6952 7.21886L13.0077 12.7189C12.6106 13.1028 11.9776 13.0922 11.5936 12.6952C11.2097 12.2981 11.2203 11.6651 11.6173 11.2811L15.5274 7.5H1C0.447715 7.5 0 7.05229 0 6.5C0 5.94772 0.447715 5.5 1 5.5H15.5274L11.6173 1.71886C11.2203 1.33493 11.2097 0.701856 11.5936 0.304843Z" fill="#FEFEFE"/>
</svg>
