<svg width="13" height="13" viewBox="0 0 13 13" fill="none" xmlns="http://www.w3.org/2000/svg">
<path fill-rule="evenodd" clip-rule="evenodd" d="M11.4082 6.50037C11.4085 7.61721 11.0333 8.70032 10.3451 9.56855C9.65691 10.4368 8.69759 11.0374 7.62756 11.2701C6.55752 11.5028 5.44168 11.3534 4.46664 10.8468C3.49161 10.3402 2.71653 9.50728 2.27102 8.48723L0.794857 9.09932C1.38004 10.4681 2.40901 11.5894 3.70879 12.2749C5.00856 12.9603 6.49987 13.168 7.93199 12.863C9.36412 12.5581 10.6497 11.7591 11.5727 10.6003C12.4956 9.4416 12.9997 7.99382 13 6.50037C13.0001 5.14373 12.5843 3.82108 11.811 2.71776C11.0377 1.61445 9.94565 0.785785 8.68785 0.347902C7.43004 -0.0899808 6.06954 -0.115134 4.79702 0.275969C3.52451 0.667071 2.40376 1.45483 1.59184 2.52883V0.541976H0V4.87536L0.795918 5.68786H4.5102V4.06285H2.496C3.02142 3.13298 3.83279 2.40615 4.80422 1.99514C5.77564 1.58413 6.85279 1.51193 7.86852 1.78974C8.88425 2.06755 9.78176 2.67983 10.4218 3.53157C11.0618 4.38332 11.4085 5.4269 11.4082 6.50037V6.50037Z" fill="white"/>
</svg>
